Coordinates
version=1
nRows=24
nColumns=22
inDegrees=yes

Units are S.I. units (second, meters, Newtons, ...)
If the header above contains a line with 'inDegrees', this indicates whether rotational values are in degrees (yes) or radians (no).

endheader
time	pelvis_tilt	pelvis_list	pelvis_rotation	pelvis_tx	pelvis_ty	pelvis_tz	hip_flexion_r	hip_adduction_r	hip_rotation_r	knee_angle_r	ankle_angle_r	subtalar_angle_r	hip_flexion_l	hip_adduction_l	hip_rotation_l	knee_angle_l	ankle_angle_l	subtalar_angle_l	lumbar_extension	lumbar_bending	lumbar_rotation
      2.97000000	      2.02768954	      0.67781491	     95.94155000	      0.45748956	      0.94218892	     -0.33154732	     -0.16397827	      3.60670997	    -13.37001024	     -7.42398841	      7.39009090	      1.12986127	      6.55785972	     -4.39314909	     -3.47555246	    -18.35683099	     11.24886475	     -1.44770797	     -7.65965085	      1.06887347	     -4.61372209
      2.98000000	      1.99388389	      0.64992061	     95.79337999	      0.45689895	      0.94227976	     -0.33187559	     -0.20428082	      3.52780486	    -13.23901632	     -7.33586751	      7.38234467	      1.17208093	      6.34526624	     -4.31604516	     -3.68326492	    -18.02279712	     11.17729014	     -1.50113906	     -7.65611568	      0.99439398	     -4.64098986
      2.99000000	      1.97011762	      0.55701519	     95.67442784	      0.45628173	      0.94224858	     -0.33213560	     -0.17355697	      3.45305064	    -13.14491594	     -7.23769330	      7.32586205	      1.18576089	      6.24146396	     -4.23548696	     -3.81968570	    -17.74077962	     11.17158398	     -1.51338051	     -7.57683156	      0.92647525	     -4.71062940
      3.00000000	      1.94953780	      0.48259397	     95.53014208	      0.45572435	      0.94223920	     -0.33236627	     -0.15620979	      3.38408836	    -13.02169389	     -7.14472560	      7.29239673	      1.20919501	      6.12616456	     -4.16693334	     -3.99597114	    -17.47551675	     11.13109234	     -1.53271354	     -7.52366816	      0.86144591	     -4.75715362
      3.01000000	      1.94105022	      0.43291562	     95.37696013	      0.45520210	      0.94225515	     -0.33255611	     -0.15426919	      3.33063856	    -12.88360148	     -7.06597360	      7.26466553	      1.24173215	      6.00164915	     -4.11661694	     -4.17928636	    -17.23595259	     11.09085944	     -1.55600964	     -7.50764418	      0.81293379	     -4.80749784
      3.02000000	      1.93191529	      0.35755944	     95.25069301	      0.45465352	      0.94221218	     -0.33274339	     -0.14186807	      3.27709207	    -12.79628464	     -6.95287982	      7.22533861	      1.25789055	      5.93566328	     -4.05996458	     -4.31911977	    -17.04584426	     11.09636074	     -1.56401043	     -7.45582040	      0.76140098	     -4.87983200
      3.03000000	      1.92945777	      0.29316939	     95.10248917	      0.45416282	      0.94218253	     -0.33289711	     -0.12743902	      3.23227002	    -12.66435487	     -6.85866260	      7.18681309	      1.27819216	      5.86810080	     -4.01559418	     -4.47490518	    -16.87334940	     11.08119189	     -1.57640398	     -7.42360910	      0.71714980	     -4.93539308
      3.04000000	      1.93807664	      0.24291746	     94.94709669	      0.45369620	      0.94216383	     -0.33302359	     -0.11728954	      3.20036191	    -12.52684721	     -6.78009003	      7.14993634	      1.30072199	      5.80558619	     -3.98602990	     -4.63114770	    -16.73384758	     11.07436027	     -1.58990316	     -7.41034649	      0.68930454	     -4.98680306
      3.05000000	      1.94023821	      0.18104475	     94.80441034	      0.45323685	      0.94211835	     -0.33314196	     -0.10273086	      3.16371192	    -12.40777466	     -6.68481280	      7.10885252	      1.31301586	      5.77835081	     -3.94810158	     -4.76125270	    -16.63223992	     11.09302464	     -1.59574266	     -7.38352377	      0.65001223	     -5.04977262
      3.06000000	      1.95170616	      0.12471689	     94.64381216	      0.45282209	      0.94208105	     -0.33323619	     -0.08027112	      3.13731081	    -12.26499711	     -6.60889671	      7.06586377	      1.32430158	      5.75745283	     -3.92408669	     -4.90611181	    -16.55190765	     11.10985106	     -1.60311332	     -7.36539031	      0.62320127	     -5.09325475
      3.07000000	      1.96869112	      0.07242186	     94.47200293	      0.45245077	      0.94204668	     -0.33330490	     -0.05138963	      3.11822721	    -12.11497620	     -6.54709061	      7.02180193	      1.33409912	      5.74688051	     -3.90898775	     -5.05691346	    -16.49663000	     11.13476009	     -1.61063720	     -7.35538431	      0.60164767	     -5.12114845
      3.08000000	      1.98865227	      0.02008472	     94.28893617	      0.45211944	      0.94201013	     -0.33335279	     -0.01451602	      3.10257030	    -11.96355913	     -6.49522994	      6.97548129	      1.34214403	      5.74950056	     -3.89974441	     -5.21498060	    -16.46479427	     11.16796098	     -1.61831970	     -7.34794981	      0.58301217	     -5.13222000
      3.09000000	      2.01543091	     -0.03301336	     94.09228140	      0.45184108	      0.94197039	     -0.33337220	      0.03552222	      3.09489313	    -11.81446507	     -6.45887494	      6.92784349	      1.34960604	      5.76494097	     -3.90176509	     -5.38480365	    -16.45387007	     11.20559510	     -1.62821572	     -7.34274801	      0.57059301	     -5.12176099
      3.10000000	      2.04974037	     -0.08882300	     93.88258805	      0.45162193	      0.94192245	     -0.33336633	      0.09964946	      3.09635460	    -11.67524241	     -6.43773856	      6.88019431	      1.35784033	      5.79574300	     -3.91600277	     -5.56244625	    -16.46457173	     11.24630793	     -1.64204674	     -7.33607887	      0.56370854	     -5.09059989
      3.11000000	      2.09113837	     -0.14874030	     93.66330917	      0.45145107	      0.94186411	     -0.33332912	      0.17929074	      3.10573627	    -11.54896740	     -6.42957527	      6.83168396	      1.36837453	      5.84285774	     -3.94178474	     -5.74903109	    -16.49608075	     11.29074866	     -1.66074327	     -7.32712864	      0.56312249	     -5.03796524
      3.12000000	      2.13960796	     -0.21002499	     93.43733251	      0.45132251	      0.94179922	     -0.33327154	      0.27099700	      3.12279338	    -11.43777561	     -6.43673353	      6.78358232	      1.38233156	      5.89911985	     -3.98003736	     -5.94420934	    -16.54010822	     11.33823339	     -1.68356008	     -7.31550768	      0.57123529	     -4.97437270
      3.13000000	      2.19272039	     -0.27311272	     93.20754547	      0.45124075	      0.94172528	     -0.33320143	      0.37049540	      3.14709852	    -11.32739286	     -6.45255415	      6.74181212	      1.40223542	      5.96380231	     -4.02795546	     -6.14071468	    -16.59617985	     11.38821137	     -1.71076322	     -7.30095565	      0.58084043	     -4.89648699
      3.14000000	      2.24496745	     -0.32860309	     92.97822342	      0.45117627	      0.94165706	     -0.33314276	      0.46570440	      3.17158481	    -11.22116482	     -6.47755353	      6.70356650	      1.42567126	      6.01829851	     -4.07795751	     -6.33838022	    -16.65174204	     11.43900392	     -1.73797510	     -7.28978359	      0.59055334	     -4.81473106
      3.15000000	      2.29314579	     -0.37340924	     92.74864686	      0.45111748	      0.94160093	     -0.33310353	      0.55001562	      3.19290343	    -11.10457249	     -6.50785409	      6.67065056	      1.45167539	      6.05476074	     -4.12499398	     -6.53773585	    -16.69926951	     11.48983208	     -1.76293824	     -7.28437820	      0.59785365	     -4.72944595
      3.16000000	      2.33428371	     -0.41079996	     92.51910921	      0.45107856	      0.94155246	     -0.33308756	      0.62276491	      3.20944814	    -10.96413123	     -6.53664525	      6.64539866	      1.48213847	      6.07516433	     -4.16697156	     -6.73772950	    -16.73605935	     11.53917017	     -1.78739119	     -7.28094239	      0.59340161	     -4.64112049
      3.17000000	      2.36748868	     -0.43331974	     92.29099020	      0.45102641	      0.94152407	     -0.33309594	      0.68044680	      3.21705455	    -10.82194193	     -6.57186354	      6.62129982	      1.51028388	      6.06898757	     -4.19938249	     -6.93843687	    -16.75853283	     11.58706245	     -1.80719098	     -7.28799618	      0.58335754	     -4.54676242
      3.18000000	      2.39186180	     -0.44827144	     92.06493746	      0.45098342	      0.94150473	     -0.33312722	      0.72402192	      3.21760572	    -10.65837754	     -6.60114131	      6.60446977	      1.53866374	      6.04437192	     -4.22262481	     -7.13934027	    -16.76497802	     11.63044677	     -1.82634779	     -7.29695927	      0.56100034	     -4.45165915
      3.19000000	      2.40774023	     -0.45577051	     91.84487752	      0.45094341	      0.94149517	     -0.33317852	      0.75552887	      3.21084819	    -10.48845303	     -6.62737172	      6.59112060	      1.56400957	      6.00200863	     -4.23639134	     -7.33835224	    -16.75484185	     11.66943168	     -1.84579202	     -7.30867988	      0.52782251	     -4.35657094
      3.20000000	      2.41536596	     -0.45835391	     91.63227097	      0.45090000	      0.94149068	     -0.33325199	      0.77533630	      3.19675821	    -10.31266114	     -6.64642928	      6.58255700	      1.58427484	      5.94495406	     -4.23975060	     -7.53423608	    -16.72848649	     11.70441539	     -1.86627405	     -7.31916294	      0.48563037	     -4.26438396
